<mxfile host="www.draw.io" modified="2020-01-16T16:54:12.437Z" agent="Mozilla/5.0 (X11; Linux x86_64) AppleWebKit/537.36 (KHTML, like Gecko) Chrome/79.0.3945.117 Safari/537.36" etag="cTHgBvze0ICGpNxTG_Yl" version="12.5.5" type="github">
  <diagram id="zO-Ndx_tbdGU6NtDlcAN" name="Page-1">
    <mxGraphModel dx="1858" dy="419" grid="1" gridSize="10" guides="1" tooltips="1" connect="1" arrows="1" fold="1" page="1" pageScale="1" pageWidth="850" pageHeight="1100" math="0" shadow="0">
      <root>
        <mxCell id="0"/>
        <mxCell id="1" parent="0"/>
        <mxCell id="oLFvgdTOxwXngNBySCXK-4" value="" style="ellipse;shape=cloud;whiteSpace=wrap;html=1;" parent="1" vertex="1">
          <mxGeometry x="-10" y="185" width="333" height="180" as="geometry"/>
        </mxCell>
        <mxCell id="7s5gqH4z4nf9z0TM5Xe7-4" value="" style="edgeStyle=orthogonalEdgeStyle;rounded=0;orthogonalLoop=1;jettySize=auto;html=1;" parent="1" source="7s5gqH4z4nf9z0TM5Xe7-1" target="7s5gqH4z4nf9z0TM5Xe7-3" edge="1">
          <mxGeometry relative="1" as="geometry"/>
        </mxCell>
        <mxCell id="7s5gqH4z4nf9z0TM5Xe7-1" value="get fetch request with remote and remote branch" style="ellipse;whiteSpace=wrap;html=1;fillColor=#d5e8d4;strokeColor=#82b366;" parent="1" vertex="1">
          <mxGeometry x="20" width="120" height="80" as="geometry"/>
        </mxCell>
        <mxCell id="7s5gqH4z4nf9z0TM5Xe7-3" value="&lt;div&gt;get remote URL from &lt;br&gt;&lt;/div&gt;&lt;div&gt;repo management graph&lt;br&gt;&lt;/div&gt;" style="whiteSpace=wrap;html=1;aspect=fixed;fillColor=#d5e8d4;strokeColor=#82b366;" parent="1" vertex="1">
          <mxGeometry x="40" y="110" width="80" height="80" as="geometry"/>
        </mxCell>
        <mxCell id="oLFvgdTOxwXngNBySCXK-12" value="" style="edgeStyle=orthogonalEdgeStyle;rounded=0;orthogonalLoop=1;jettySize=auto;html=1;" parent="1" source="7s5gqH4z4nf9z0TM5Xe7-5" target="7s5gqH4z4nf9z0TM5Xe7-7" edge="1">
          <mxGeometry relative="1" as="geometry"/>
        </mxCell>
        <mxCell id="7s5gqH4z4nf9z0TM5Xe7-5" value="&lt;div&gt;serve layerids as pack&lt;/div&gt;" style="whiteSpace=wrap;html=1;aspect=fixed;fillColor=#d5e8d4;strokeColor=#82b366;" parent="1" vertex="1">
          <mxGeometry x="40" y="235" width="80" height="80" as="geometry"/>
        </mxCell>
        <mxCell id="7s5gqH4z4nf9z0TM5Xe7-7" value="&lt;div&gt;d/l pack&lt;/div&gt;" style="whiteSpace=wrap;html=1;aspect=fixed;fillColor=#d5e8d4;strokeColor=#82b366;" parent="1" vertex="1">
          <mxGeometry x="40" y="360" width="80" height="80" as="geometry"/>
        </mxCell>
        <mxCell id="7s5gqH4z4nf9z0TM5Xe7-17" value="" style="edgeStyle=orthogonalEdgeStyle;rounded=0;orthogonalLoop=1;jettySize=auto;html=1;exitX=0.5;exitY=1;exitDx=0;exitDy=0;" parent="1" source="oLFvgdTOxwXngNBySCXK-18" target="7s5gqH4z4nf9z0TM5Xe7-15" edge="1">
          <mxGeometry relative="1" as="geometry">
            <mxPoint x="210" y="500" as="targetPoint"/>
            <mxPoint x="270" y="470" as="sourcePoint"/>
          </mxGeometry>
        </mxCell>
        <mxCell id="7s5gqH4z4nf9z0TM5Xe7-13" value="&lt;div&gt;report to&lt;/div&gt;&lt;div&gt;user&lt;br&gt;&lt;/div&gt;" style="ellipse;whiteSpace=wrap;html=1;fillColor=#d5e8d4;strokeColor=#82b366;" parent="1" vertex="1">
          <mxGeometry x="350" y="510" width="120" height="80" as="geometry"/>
        </mxCell>
        <mxCell id="7s5gqH4z4nf9z0TM5Xe7-18" style="edgeStyle=orthogonalEdgeStyle;rounded=0;orthogonalLoop=1;jettySize=auto;html=1;" parent="1" source="7s5gqH4z4nf9z0TM5Xe7-15" target="7s5gqH4z4nf9z0TM5Xe7-13" edge="1">
          <mxGeometry relative="1" as="geometry"/>
        </mxCell>
        <mxCell id="7s5gqH4z4nf9z0TM5Xe7-15" value="&lt;div&gt;write fetched data label&lt;/div&gt;&lt;div&gt;into repo management db&lt;br&gt;&lt;/div&gt;" style="whiteSpace=wrap;html=1;aspect=fixed;fillColor=#d5e8d4;strokeColor=#82b366;" parent="1" vertex="1">
          <mxGeometry x="230" y="510" width="80" height="80" as="geometry"/>
        </mxCell>
        <mxCell id="oLFvgdTOxwXngNBySCXK-10" value="" style="edgeStyle=orthogonalEdgeStyle;rounded=0;orthogonalLoop=1;jettySize=auto;html=1;" parent="1" source="oLFvgdTOxwXngNBySCXK-1" target="oLFvgdTOxwXngNBySCXK-8" edge="1">
          <mxGeometry relative="1" as="geometry"/>
        </mxCell>
        <mxCell id="oLFvgdTOxwXngNBySCXK-1" value="send list of layerids and current head" style="rounded=0;whiteSpace=wrap;html=1;fillColor=#d5e8d4;strokeColor=#82b366;" parent="1" vertex="1">
          <mxGeometry x="190" y="125" width="85" height="50" as="geometry"/>
        </mxCell>
        <mxCell id="oLFvgdTOxwXngNBySCXK-2" value="" style="edgeStyle=orthogonalEdgeStyle;rounded=0;orthogonalLoop=1;jettySize=auto;html=1;" parent="1" source="7s5gqH4z4nf9z0TM5Xe7-3" target="oLFvgdTOxwXngNBySCXK-1" edge="1">
          <mxGeometry relative="1" as="geometry">
            <mxPoint x="80" y="190" as="sourcePoint"/>
            <mxPoint x="80" y="270" as="targetPoint"/>
          </mxGeometry>
        </mxCell>
        <mxCell id="oLFvgdTOxwXngNBySCXK-11" value="" style="edgeStyle=orthogonalEdgeStyle;rounded=0;orthogonalLoop=1;jettySize=auto;html=1;" parent="1" source="oLFvgdTOxwXngNBySCXK-8" target="7s5gqH4z4nf9z0TM5Xe7-5" edge="1">
          <mxGeometry relative="1" as="geometry"/>
        </mxCell>
        <mxCell id="oLFvgdTOxwXngNBySCXK-8" value="compare layer ids to see which to serve" style="rounded=0;whiteSpace=wrap;html=1;fillColor=#f8cecc;strokeColor=#b85450;" parent="1" vertex="1">
          <mxGeometry x="173" y="245" width="120" height="60" as="geometry"/>
        </mxCell>
        <mxCell id="oLFvgdTOxwXngNBySCXK-19" value="" style="edgeStyle=orthogonalEdgeStyle;rounded=0;orthogonalLoop=1;jettySize=auto;html=1;exitX=1;exitY=0.5;exitDx=0;exitDy=0;" parent="1" source="7s5gqH4z4nf9z0TM5Xe7-7" target="oLFvgdTOxwXngNBySCXK-18" edge="1">
          <mxGeometry relative="1" as="geometry">
            <mxPoint x="300" y="410" as="sourcePoint"/>
          </mxGeometry>
        </mxCell>
        <mxCell id="oLFvgdTOxwXngNBySCXK-18" value="process pack with terminus-store" style="rounded=0;whiteSpace=wrap;html=1;fillColor=#f8cecc;strokeColor=#b85450;" parent="1" vertex="1">
          <mxGeometry x="210" y="370" width="120" height="60" as="geometry"/>
        </mxCell>
      </root>
    </mxGraphModel>
  </diagram>
</mxfile>
